<?xml version="1.0" encoding="UTF-8" standalone="no"?>
<svg
   xmlns:dc="http://purl.org/dc/elements/1.1/"
   xmlns:cc="http://creativecommons.org/ns#"
   xmlns:rdf="http://www.w3.org/1999/02/22-rdf-syntax-ns#"
   xmlns:svg="http://www.w3.org/2000/svg"
   xmlns="http://www.w3.org/2000/svg"
   viewBox="0 0 467.68427 384.20721"
   height="384.20721"
   width="467.68427"
   xml:space="preserve"
   id="svg2"
   version="1.1"><metadata
     id="metadata8"><rdf:RDF><cc:Work
         rdf:about=""><dc:format>image/svg+xml</dc:format><dc:type
           rdf:resource="http://purl.org/dc/dcmitype/StillImage" /></cc:Work></rdf:RDF></metadata><defs
     id="defs6"><clipPath
       id="clipPath14"
       clipPathUnits="userSpaceOnUse"><path
         id="path12"
         d="M 0,0 H 612 V 792 H 0 Z" /></clipPath></defs><g
     clip-path="url(#clipPath14)"
     transform="matrix(1.3333333,0,0,-1.3333333,-172.2444,897.82587)"
     id="g10"><g
       transform="translate(133.768,526.623)"
       id="g16"><g
         transform="matrix(0.93109,0,0,0.93109,-124.55005,-490.33341)"
         id="g18"><text
           id="text22"
           style="font-variant:normal;font-weight:normal;font-size:9.96259975px;font-family:CMR10;-inkscape-font-specification:CMR10;writing-mode:lr-tb;fill:#000000;fill-opacity:1;fill-rule:nonzero;stroke:none"
           transform="matrix(1,0,0,-1,226.302,669.233)"><tspan
             id="tspan20"
             y="0"
             x="0 3.5974948 32.100494 39.433964 43.861343 48.842644 68.588516 72.186012 79.657959 87.406868 94.740341 99.167717 104.14902">INReaLIN+ReaL</tspan></text>
<g
           transform="translate(342.658,665.647)"
           id="g24"><path
             id="path26"
             style="fill:#f2f2f2;fill-opacity:1;fill-rule:nonzero;stroke:none"
             d="M 0,0 H 39.629 V 11.955 H 0 Z" /></g><text
           id="text30"
           style="font-variant:normal;font-weight:normal;font-size:9.96259975px;font-family:CMR10;-inkscape-font-specification:CMR10;writing-mode:lr-tb;fill:#000000;fill-opacity:1;fill-rule:nonzero;stroke:none"
           transform="matrix(1,0,0,-1,353.201,669.233)"><tspan
             id="tspan28"
             y="0"
             x="0 3.5974948 11.069445 14.389979">IN-A</tspan></text>
<g
           transform="translate(382.287,665.647)"
           id="g32"><path
             id="path34"
             style="fill:#f2f2f2;fill-opacity:1;fill-rule:nonzero;stroke:none"
             d="M 0,0 H 39.629 V 11.955 H 0 Z" /></g><text
           id="text38"
           style="font-variant:normal;font-weight:normal;font-size:9.96259975px;font-family:CMR10;-inkscape-font-specification:CMR10;writing-mode:lr-tb;fill:#000000;fill-opacity:1;fill-rule:nonzero;stroke:none"
           transform="matrix(1,0,0,-1,392.9,669.233)"><tspan
             id="tspan36"
             y="0"
             x="0 3.5974948 11.069445 14.389979">IN-R</tspan></text>
<g
           transform="translate(421.916,665.647)"
           id="g40"><path
             id="path42"
             style="fill:#f2f2f2;fill-opacity:1;fill-rule:nonzero;stroke:none"
             d="M 0,0 H 38.052 V 11.955 H 0 Z" /></g><text
           id="text46"
           style="font-variant:normal;font-weight:normal;font-size:9.96259975px;font-family:CMR10;-inkscape-font-specification:CMR10;writing-mode:lr-tb;fill:#000000;fill-opacity:1;fill-rule:nonzero;stroke:none"
           transform="matrix(1,0,0,-1,432.64,669.233)"><tspan
             id="tspan44"
             y="0"
             x="0 3.5974948 11.069445 14.389979">IN-S</tspan></text>
<g
           transform="translate(459.968,665.647)"
           id="g48"><path
             id="path50"
             style="fill:#f2f2f2;fill-opacity:1;fill-rule:nonzero;stroke:none"
             d="M 0,0 H 39.629 V 11.955 H 0 Z" /></g><text
           id="text54"
           style="font-variant:normal;font-weight:normal;font-size:9.96259975px;font-family:CMR10;-inkscape-font-specification:CMR10;writing-mode:lr-tb;fill:#000000;fill-opacity:1;fill-rule:nonzero;stroke:none"
           transform="matrix(1,0,0,-1,473.832,669.233)"><tspan
             id="tspan52"
             y="0"
             x="0 7.7489104">ON</tspan></text>
<g
           transform="translate(133.768,663.532)"
           id="g56"><path
             id="path58"
             style="fill:none;stroke:#000000;stroke-width:0.79699999;stroke-linecap:butt;stroke-linejoin:miter;stroke-miterlimit:10;stroke-dasharray:none;stroke-opacity:1"
             d="M 0,0 H 365.829" /></g><text
           id="text62"
           style="font-variant:normal;font-weight:normal;font-size:9.96259975px;font-family:CMR10;-inkscape-font-specification:CMR10;writing-mode:lr-tb;fill:#000000;fill-opacity:1;fill-rule:nonzero;stroke:none"
           transform="matrix(1,0,0,-1,139.746,654.765)"><tspan
             id="tspan60"
             y="0"
             x="0 3.8744552 8.8557549">(a)</tspan></text>
<text
           id="text66"
           style="font-variant:normal;font-weight:normal;font-size:9.96259975px;font-family:CMTI10;-inkscape-font-specification:CMTI10;writing-mode:lr-tb;fill:#000000;fill-opacity:1;fill-rule:nonzero;stroke:none"
           transform="matrix(1,0,0,-1,155.797,654.765)"><tspan
             id="tspan64"
             y="0"
             x="0 5.6009736 8.9105492 14.002435 19.603409 24.695293 29.787178 33.480312 42.138809 45.448383 50.540268 55.632156 59.196774 67.85527 72.947151 77.011894 81.594688 86.94162 90.63475 95.726639 100.30943 108.71388 112.78859 117.88047 121.95418 126.02888 134.68738 139.77927">Standardtop-1accuracybasedon</tspan></text>
<text
           id="text70"
           style="font-variant:normal;font-weight:normal;font-size:9.96259975px;font-family:CMMI10;-inkscape-font-specification:CMMI10;writing-mode:lr-tb;fill:#000000;fill-opacity:1;fill-rule:nonzero;stroke:none"
           transform="matrix(1,0,0,-1,304.737,654.765)"><tspan
             id="tspan68"
             y="0"
             x="0">N</tspan></text>
<text
           id="text74"
           style="font-variant:normal;font-weight:normal;font-size:9.96259975px;font-family:CMTI10;-inkscape-font-specification:CMTI10;writing-mode:lr-tb;fill:#000000;fill-opacity:1;fill-rule:nonzero;stroke:none"
           transform="matrix(1,0,0,-1,317.393,654.765)"><tspan
             id="tspan72"
             y="0"
             x="0">=</tspan></text>
<text
           id="text78"
           style="font-variant:normal;font-weight:normal;font-size:9.96259975px;font-family:CMBXTI10;-inkscape-font-specification:CMBXTI10;writing-mode:lr-tb;fill:#000000;fill-opacity:1;fill-rule:nonzero;stroke:none"
           transform="matrix(1,0,0,-1,328.595,654.765)"><tspan
             id="tspan76"
             y="0"
             x="0">1</tspan></text>
<text
           id="text82"
           style="font-variant:normal;font-weight:normal;font-size:9.96259975px;font-family:CMTI10;-inkscape-font-specification:CMTI10;writing-mode:lr-tb;fill:#000000;fill-opacity:1;fill-rule:nonzero;stroke:none"
           transform="matrix(1,0,0,-1,338.048,654.765)"><tspan
             id="tspan80"
             y="0"
             x="0 4.5827961 8.2759314 13.367817">crop</tspan></text>
<text
           id="text104"
           style="font-variant:normal;font-weight:normal;font-size:9.96259975px;font-family:CMR10;-inkscape-font-specification:CMR10;writing-mode:lr-tb;fill:#000000;fill-opacity:1;fill-rule:nonzero;stroke:none"
           transform="matrix(1,0,0,-1,139.746,642.81)"><tspan
             id="tspan84"
             y="0"
             x="0 7.4719501 10.23956 14.66694 19.9252 27.39715 31.82453">AlexNet</tspan><tspan
             id="tspan86"
             y="0"
             x="82.443504 87.424805 92.406105 95.173714 100.15501 120.49864 125.47994 130.46124 133.22885 138.21016 164.69075 169.67204 174.65335 177.42096 182.40225 218.85541 223.8367 226.60432 231.58562 253.50334 258.48465 263.46594 266.23355 271.21484 291.54852 296.52982 301.51111 304.27872 309.26004 331.17773 336.15906 341.14035 343.90796 348.88925">56.1662.6761.761.7521.1010.0514.23</tspan><tspan
             id="tspan88"
             y="11.955"
             x="0 7.192997 15.01065 22.828302 26.148836 31.130136">VGG-16</tspan><tspan
             id="tspan90"
             y="11.955"
             x="82.447487 87.428787 92.410088 95.177696 100.159 120.50262 125.48392 130.46523 133.23283 138.21414 164.69473 169.67603 174.65733 177.42494 182.40623 218.84943 223.83073 226.59834 231.57964 253.49736 258.47867 263.45996 266.22757 271.20886 291.55249 296.53381 301.51511 304.28271 309.26401 331.18173 336.16302 341.14432 343.91193 348.89325">71.3778.9078.522.6926.9816.7828.32</tspan><tspan
             id="tspan92"
             y="23.91"
             x="0 7.3334699 11.760849 15.690099 23.162048 27.589428 31.463882 34.784416 39.765717">ResNet-18</tspan><tspan
             id="tspan94"
             y="23.91"
             x="82.445496 87.426796 92.408096 95.175705 100.15701 120.50063 125.48193 130.46324 133.23085 138.21214 164.69273 169.67404 174.65533 177.42294 182.40425 218.84744 223.82874 226.59634 231.57765 253.49536 258.47665 263.45798 266.22559 271.20688 291.55051 296.5318 301.51312 304.28073 309.26202 331.17975 336.16104 341.14233 343.90994 348.89124">69.4576.9476.471.3732.1419.4127.59</tspan><tspan
             id="tspan96"
             y="35.866001"
             x="0 7.3334699 11.760849 15.690099 23.162048 27.589428 31.463882 34.784416 39.765717">ResNet-50</tspan><tspan
             id="tspan98"
             y="35.866001"
             x="82.445496 87.426796 92.408096 95.175705 100.15701 120.50063 125.48193 130.46324 133.23085 138.21214 164.69273 169.67404 174.65533 177.42294 182.40425 218.84744 223.82874 226.59634 231.57765 253.49536 258.47665 263.45798 266.22559 271.20688 291.55051 296.5318 301.51312 304.28073 309.26202 331.17975 336.16104 341.14233 343.90994 348.89124">75.7582.6382.970.2135.3922.9136.18</tspan><tspan
             id="tspan100"
             y="47.820999"
             x="0 7.4719501 10.23956 17.434549 20.755085 27.811594 32.792892 37.774193">ViT-B/32</tspan><tspan
             id="tspan102"
             y="47.820999"
             x="82.446495 87.427795 92.409096 95.176704 100.158 120.50163 125.48293 130.46423 133.23184 138.21313 164.69373 169.67503 174.65633 177.42395 182.40524 218.84843 223.82973 226.59735 231.57864 253.49637 258.47766 263.45895 266.22656 271.20789 291.55151 296.53281 301.5141 304.28171 309.263 331.18073 336.16205 341.14334 343.91095 348.89224">75.7581.8982.599.6441.2926.8330.89</tspan></text>
<text
           id="text110"
           style="font-variant:normal;font-weight:normal;font-size:7.97009993px;font-family:CMBX8;-inkscape-font-specification:CMBX8;writing-mode:lr-tb;fill:#000000;fill-opacity:1;fill-rule:nonzero;stroke:none"
           transform="matrix(1,0,0,-1,139.746,583.034)"><tspan
             id="tspan106"
             y="0"
             x="0 7.0511475 12.90678 16.565056">CLIP</tspan><tspan
             id="tspan108"
             y="0"
             x="23.223278 26.477468 33.827496 36.539719 43.331043 46.585236 52.440868 57.322552 62.204239">-ViT-L/14</tspan></text>
<text
           id="text114"
           style="font-variant:normal;font-weight:normal;font-size:9.96259975px;font-family:CMR10;-inkscape-font-specification:CMR10;writing-mode:lr-tb;fill:#000000;fill-opacity:1;fill-rule:nonzero;stroke:none"
           transform="matrix(1,0,0,-1,222.193,583.034)"><tspan
             id="tspan112"
             y="0"
             x="0 4.9812999 9.9625998 12.73021 17.71151 38.055138 43.036438 48.017738 50.785351 55.766651 82.247238 87.228539 92.209839 94.977448 99.958748 131.42064 136.40195 141.38324 144.15085 149.13216 171.04987 176.03117 181.01247 183.78008 188.76138 209.10501 214.08632 219.06761 221.83522 226.81653 248.73424 253.71555 258.69684 261.46445 266.44574">75.0380.6881.9571.2887.7458.2366.32</tspan></text>
<g
           transform="translate(133.768,577.333)"
           id="g116"><path
             id="path118"
             style="fill:none;stroke:#000000;stroke-width:0.79699999;stroke-linecap:butt;stroke-linejoin:miter;stroke-miterlimit:10;stroke-dasharray:none;stroke-opacity:1"
             d="M 0,0 H 365.829" /></g><text
           id="text122"
           style="font-variant:normal;font-weight:normal;font-size:9.96259975px;font-family:CMR10;-inkscape-font-specification:CMR10;writing-mode:lr-tb;fill:#000000;fill-opacity:1;fill-rule:nonzero;stroke:none"
           transform="matrix(1,0,0,-1,139.746,568.566)"><tspan
             id="tspan120"
             y="0"
             x="0 3.8744552 9.4096756">(b)</tspan></text>
<text
           id="text126"
           style="font-variant:normal;font-weight:normal;font-size:9.96259975px;font-family:CMTI10;-inkscape-font-specification:CMTI10;writing-mode:lr-tb;fill:#000000;fill-opacity:1;fill-rule:nonzero;stroke:none"
           transform="matrix(1,0,0,-1,156.35,568.566)"><tspan
             id="tspan124"
             y="0"
             x="0 7.4052005 12.497086 17.080877 21.663673 25.864902 29.42952 33.504223 38.596107 43.943035 49.54401 58.202507 63.294392 67.359131 71.941925 77.288857 80.981987 86.073875 90.65667 99.061119 104.40805 108.48176 111.53728 117.13826">Upper-boundaccuracyusing</tspan></text>
<text
           id="text130"
           style="font-variant:normal;font-weight:normal;font-size:9.96259975px;font-family:CMMI10;-inkscape-font-specification:CMMI10;writing-mode:lr-tb;fill:#000000;fill-opacity:1;fill-rule:nonzero;stroke:none"
           transform="matrix(1,0,0,-1,281.635,568.566)"><tspan
             id="tspan128"
             y="0"
             x="0">N</tspan></text>
<text
           id="text134"
           style="font-variant:normal;font-weight:normal;font-size:9.96259975px;font-family:CMTI10;-inkscape-font-specification:CMTI10;writing-mode:lr-tb;fill:#000000;fill-opacity:1;fill-rule:nonzero;stroke:none"
           transform="matrix(1,0,0,-1,294.29,568.566)"><tspan
             id="tspan132"
             y="0"
             x="0">=</tspan></text>
<text
           id="text138"
           style="font-variant:normal;font-weight:normal;font-size:9.96259975px;font-family:CMBXTI10;-inkscape-font-specification:CMBXTI10;writing-mode:lr-tb;fill:#000000;fill-opacity:1;fill-rule:nonzero;stroke:none"
           transform="matrix(1,0,0,-1,305.493,568.566)"><tspan
             id="tspan136"
             y="0"
             x="0 5.8888927">36</tspan></text>
<text
           id="text142"
           style="font-variant:normal;font-weight:normal;font-size:9.96259975px;font-family:CMTI10;-inkscape-font-specification:CMTI10;writing-mode:lr-tb;fill:#000000;fill-opacity:1;fill-rule:nonzero;stroke:none"
           transform="matrix(1,0,0,-1,320.835,568.566)"><tspan
             id="tspan140"
             y="0"
             x="0 4.5827961 8.2759314 13.367817 18.459702">crops</tspan></text>
<g
           transform="translate(133.768,553.024)"
           id="g144"><path
             id="path146"
             style="fill:#fff200;fill-opacity:1;fill-rule:nonzero;stroke:none"
             d="M 0,0 H 79.043 V 11.955 H 0 Z" /></g><text
           id="text150"
           style="font-variant:normal;font-weight:normal;font-size:9.96259975px;font-family:CMR10;-inkscape-font-specification:CMR10;writing-mode:lr-tb;fill:#000000;fill-opacity:1;fill-rule:nonzero;stroke:none"
           transform="matrix(1,0,0,-1,139.746,556.611)"><tspan
             id="tspan148"
             y="0"
             x="0 7.3334699 12.31477 17.849991 23.38521 28.36651">Random</tspan></text>
<g
           transform="translate(212.811,553.024)"
           id="g152"><path
             id="path154"
             style="fill:#fff200;fill-opacity:1;fill-rule:nonzero;stroke:none"
             d="M 0,0 H 38.052 V 11.955 H 0 Z" /></g><text
           id="text158"
           style="font-variant:normal;font-weight:normal;font-size:9.96259975px;font-family:CMR10;-inkscape-font-specification:CMR10;writing-mode:lr-tb;fill:#000000;fill-opacity:1;fill-rule:nonzero;stroke:none"
           transform="matrix(1,0,0,-1,227.174,556.611)"><tspan
             id="tspan156"
             y="0"
             x="0 4.9812999 7.7489104 12.73021">3.60</tspan></text>
<g
           transform="translate(250.863,553.024)"
           id="g160"><path
             id="path162"
             style="fill:#fff200;fill-opacity:1;fill-rule:nonzero;stroke:none"
             d="M 0,0 H 38.052 V 11.955 H 0 Z" /></g><text
           id="text166"
           style="font-variant:normal;font-weight:normal;font-size:9.96259975px;font-family:CMR10;-inkscape-font-specification:CMR10;writing-mode:lr-tb;fill:#000000;fill-opacity:1;fill-rule:nonzero;stroke:none"
           transform="matrix(1,0,0,-1,265.226,556.611)"><tspan
             id="tspan164"
             y="0"
             x="0 4.9812999 7.7489104 12.73021">3.60</tspan></text>
<g
           transform="translate(288.915,553.024)"
           id="g168"><path
             id="path170"
             style="fill:#fff200;fill-opacity:1;fill-rule:nonzero;stroke:none"
             d="M 0,0 H 53.743 V 11.955 H 0 Z" /></g><text
           id="text174"
           style="font-variant:normal;font-weight:normal;font-size:9.96259975px;font-family:CMR10;-inkscape-font-specification:CMR10;writing-mode:lr-tb;fill:#000000;fill-opacity:1;fill-rule:nonzero;stroke:none"
           transform="matrix(1,0,0,-1,306.93,556.611)"><tspan
             id="tspan172"
             y="0"
             x="0 4.9812999 7.7489104 12.73021">3.60</tspan></text>
<g
           transform="translate(342.658,553.024)"
           id="g176"><path
             id="path178"
             style="fill:#fff200;fill-opacity:1;fill-rule:nonzero;stroke:none"
             d="M 0,0 H 39.629 V 11.955 H 0 Z" /></g><text
           id="text182"
           style="font-variant:normal;font-weight:normal;font-size:9.96259975px;font-family:CMR10;-inkscape-font-specification:CMR10;writing-mode:lr-tb;fill:#000000;fill-opacity:1;fill-rule:nonzero;stroke:none"
           transform="matrix(1,0,0,-1,353.616,556.611)"><tspan
             id="tspan180"
             y="0"
             x="0 4.9812999 9.9625998 12.73021 17.71151">18.00</tspan></text>
<g
           transform="translate(382.287,553.024)"
           id="g184"><path
             id="path186"
             style="fill:#fff200;fill-opacity:1;fill-rule:nonzero;stroke:none"
             d="M 0,0 H 39.629 V 11.955 H 0 Z" /></g><text
           id="text190"
           style="font-variant:normal;font-weight:normal;font-size:9.96259975px;font-family:CMR10;-inkscape-font-specification:CMR10;writing-mode:lr-tb;fill:#000000;fill-opacity:1;fill-rule:nonzero;stroke:none"
           transform="matrix(1,0,0,-1,393.246,556.611)"><tspan
             id="tspan188"
             y="0"
             x="0 4.9812999 9.9625998 12.73021 17.71151">18.00</tspan></text>
<g
           transform="translate(421.916,553.024)"
           id="g192"><path
             id="path194"
             style="fill:#fff200;fill-opacity:1;fill-rule:nonzero;stroke:none"
             d="M 0,0 H 38.052 V 11.955 H 0 Z" /></g><text
           id="text198"
           style="font-variant:normal;font-weight:normal;font-size:9.96259975px;font-family:CMR10;-inkscape-font-specification:CMR10;writing-mode:lr-tb;fill:#000000;fill-opacity:1;fill-rule:nonzero;stroke:none"
           transform="matrix(1,0,0,-1,436.279,556.611)"><tspan
             id="tspan196"
             y="0"
             x="0 4.9812999 7.7489104 12.73021">3.60</tspan></text>
<g
           transform="translate(459.968,553.024)"
           id="g200"><path
             id="path202"
             style="fill:#fff200;fill-opacity:1;fill-rule:nonzero;stroke:none"
             d="M 0,0 H 39.629 V 11.955 H 0 Z" /></g><text
           id="text226"
           style="font-variant:normal;font-weight:normal;font-size:9.96259975px;font-family:CMR10;-inkscape-font-specification:CMR10;writing-mode:lr-tb;fill:#000000;fill-opacity:1;fill-rule:nonzero;stroke:none"
           transform="matrix(1,0,0,-1,470.927,556.611)"><tspan
             id="tspan204"
             y="0"
             x="0 4.9812999 9.9625998 12.73021 17.71151">31.85</tspan><tspan
             id="tspan206"
             y="11.955"
             x="-331.181 -323.70905 -320.94144 -316.51407 -311.2558 -303.78384 -299.35648">AlexNet</tspan><tspan
             id="tspan208"
             y="11.955"
             x="-248.7375 -243.7562 -238.7749 -236.00728 -231.02599 -210.68236 -205.70105 -200.71976 -197.95215 -192.97084 -166.49025 -161.50896 -156.52765 -153.76004 -148.77875 -117.30689 -112.32559 -107.34429 -104.57668 -99.595383 -77.677658 -72.696365 -67.715065 -64.947449 -59.966152 -39.632484 -34.651184 -29.669886 -26.902275 -21.920975 -0.00325454 4.9780455 9.9593458 12.726955 17.708256">85.1990.3089.7431.3747.0424.4049.17</tspan><tspan
             id="tspan210"
             y="23.91"
             x="-331.181 -323.98801 -316.17035 -308.35269 -305.03217 -300.05087">VGG-16</tspan><tspan
             id="tspan212"
             y="23.91"
             x="-248.73351 -243.75221 -238.7709 -236.0033 -231.022 -210.67838 -205.69707 -200.71577 -197.94817 -192.96686 -166.48627 -161.50497 -156.52367 -153.75606 -148.77477 -117.31287 -112.33157 -107.35027 -104.58266 -99.601357 -77.68364 -72.702339 -67.721039 -64.95343 -59.97213 -39.628498 -34.647202 -29.665899 -26.898289 -21.91699 0.00073049997 4.9820304 9.9633303 12.730941 17.71224">92.3096.0895.8146.6952.8634.3462.94</tspan><tspan
             id="tspan214"
             y="35.865002"
             x="-331.181 -323.84753 -319.42014 -315.49091 -308.01895 -303.59158 -299.7171 -296.39658 -291.41528">ResNet-18</tspan><tspan
             id="tspan216"
             y="35.865002"
             x="-248.7355 -243.7542 -238.7729 -236.00529 -231.02399 -210.68036 -205.69907 -200.71776 -197.95015 -192.96886 -166.48827 -161.50696 -156.52567 -153.75806 -148.77675 -117.31487 -112.33356 -107.35226 -104.58465 -99.603355 -77.685631 -72.70433 -67.72303 -64.955421 -59.974121 -39.630493 -34.649193 -29.667892 -26.900282 -21.918982 -0.00126202 4.9800382 9.961338 12.728949 17.710249">92.0895.9795.7347.4858.8537.9163.08</tspan><tspan
             id="tspan218"
             y="47.820999"
             x="-331.181 -323.84753 -319.42014 -315.49091 -308.01895 -303.59158 -299.7171 -296.39658 -291.41528">ResNet-50</tspan><tspan
             id="tspan220"
             y="47.820999"
             x="-248.7355 -243.7542 -238.7729 -236.00529 -231.02399 -210.68036 -205.69907 -200.71776 -197.95015 -192.96886 -166.48827 -161.50696 -156.52567 -153.75806 -148.77675 -117.31487 -112.33356 -107.35226 -104.58465 -99.603355 -77.685631 -72.70433 -67.72303 -64.955421 -59.974121 -39.630493 -34.649193 -29.667892 -26.900282 -21.918982 -0.00126202 4.9800382 9.961338 12.728949 17.710249">94.4697.3697.4055.6861.4241.7169.60</tspan><tspan
             id="tspan222"
             y="59.776001"
             x="-331.181 -323.70905 -320.94144 -313.74646 -310.4259 -303.36942 -298.38809 -293.4068">ViT-B/32</tspan><tspan
             id="tspan224"
             y="59.776001"
             x="-248.73451 -243.7532 -238.77191 -236.0043 -231.02299 -210.67937 -205.69807 -200.71677 -197.94916 -192.96786 -166.48727 -161.50597 -156.52467 -153.75705 -148.77576 -117.31387 -112.33257 -107.35126 -104.58366 -99.602356 -77.684639 -72.703339 -67.722038 -64.954422 -59.973125 -39.629498 -34.648197 -29.666897 -26.899286 -21.917986 -0.00026576 4.9810343 9.9623346 12.729944 17.711245">95.0597.6197.8868.4368.7749.1070.30</tspan></text>
<text
           id="text232"
           style="font-variant:normal;font-weight:normal;font-size:7.97009993px;font-family:CMBX8;-inkscape-font-specification:CMBX8;writing-mode:lr-tb;fill:#000000;fill-opacity:1;fill-rule:nonzero;stroke:none"
           transform="matrix(1,0,0,-1,139.746,484.88)"><tspan
             id="tspan228"
             y="0"
             x="0 7.0511475 12.90678 16.565056">CLIP</tspan><tspan
             id="tspan230"
             y="0"
             x="23.223278 26.477468 33.827496 36.539719 43.331043 46.585236 52.440868 57.322552 62.204239">-ViT-L/14</tspan></text>
<text
           id="text236"
           style="font-variant:normal;font-weight:normal;font-size:9.96259975px;font-family:CMR10;-inkscape-font-specification:CMR10;writing-mode:lr-tb;fill:#000000;fill-opacity:1;fill-rule:nonzero;stroke:none"
           transform="matrix(1,0,0,-1,222.193,484.88)"><tspan
             id="tspan234"
             y="0"
             x="0 4.9812999 9.9625998 12.73021 17.71151 38.055138 43.036438 48.017738 50.785351 55.766651 82.247238 87.228539 92.209839 94.977448 99.958748 131.42064 136.40195 141.38324 144.15085 149.13216 171.04987 176.03117 181.01247 183.78008 188.76138 209.10501 214.08632 219.06761 221.83522 226.81653 248.73424 253.71555 258.69684 261.46445 266.44574">94.1997.3297.5697.1698.6083.7789.59</tspan></text>
<g
           transform="translate(133.768,479.179)"
           id="g238"><path
             id="path240"
             style="fill:none;stroke:#000000;stroke-width:0.79699999;stroke-linecap:butt;stroke-linejoin:miter;stroke-miterlimit:10;stroke-dasharray:none;stroke-opacity:1"
             d="M 0,0 H 365.829" /></g><text
           id="text244"
           style="font-variant:normal;font-weight:normal;font-size:9.96259975px;font-family:CMR10;-inkscape-font-specification:CMR10;writing-mode:lr-tb;fill:#000000;fill-opacity:1;fill-rule:nonzero;stroke:none"
           transform="matrix(1,0,0,-1,139.746,470.412)"><tspan
             id="tspan242"
             y="0"
             x="0 3.8744552 8.3018341">(c)</tspan></text>
<text
           id="text248"
           style="font-variant:normal;font-weight:normal;font-size:9.96259975px;font-family:CMTI10;-inkscape-font-specification:CMTI10;writing-mode:lr-tb;fill:#000000;fill-opacity:1;fill-rule:nonzero;stroke:none"
           transform="matrix(1,0,0,-1,155.243,470.412)"><tspan
             id="tspan246"
             y="0"
             x="0 7.4052005 12.497086 17.080877 21.663673 25.864902 29.42952 33.504223 38.596107 43.943035 49.54401 58.202507 63.294392 67.359131 71.941925 77.288857 80.981987 86.073875 90.65667 99.061119 104.40805 108.48176 111.53728 117.13826">Upper-boundaccuracyusing</tspan></text>
<text
           id="text252"
           style="font-variant:normal;font-weight:normal;font-size:9.96259975px;font-family:CMMI10;-inkscape-font-specification:CMMI10;writing-mode:lr-tb;fill:#000000;fill-opacity:1;fill-rule:nonzero;stroke:none"
           transform="matrix(1,0,0,-1,280.528,470.412)"><tspan
             id="tspan250"
             y="0"
             x="0">N</tspan></text>
<text
           id="text256"
           style="font-variant:normal;font-weight:normal;font-size:9.96259975px;font-family:CMTI10;-inkscape-font-specification:CMTI10;writing-mode:lr-tb;fill:#000000;fill-opacity:1;fill-rule:nonzero;stroke:none"
           transform="matrix(1,0,0,-1,293.183,470.412)"><tspan
             id="tspan254"
             y="0"
             x="0">=</tspan></text>
<text
           id="text260"
           style="font-variant:normal;font-weight:normal;font-size:9.96259975px;font-family:CMBXTI10;-inkscape-font-specification:CMBXTI10;writing-mode:lr-tb;fill:#000000;fill-opacity:1;fill-rule:nonzero;stroke:none"
           transform="matrix(1,0,0,-1,304.386,470.412)"><tspan
             id="tspan258"
             y="0"
             x="0 5.8888927 11.777785">324</tspan></text>
<text
           id="text264"
           style="font-variant:normal;font-weight:normal;font-size:9.96259975px;font-family:CMTI10;-inkscape-font-specification:CMTI10;writing-mode:lr-tb;fill:#000000;fill-opacity:1;fill-rule:nonzero;stroke:none"
           transform="matrix(1,0,0,-1,325.617,470.412)"><tspan
             id="tspan262"
             y="0"
             x="0 4.5827961 8.2759314 13.367817 18.459702">crops</tspan></text>
<g
           transform="translate(133.768,454.87)"
           id="g266"><path
             id="path268"
             style="fill:#fff200;fill-opacity:1;fill-rule:nonzero;stroke:none"
             d="M 0,0 H 79.043 V 11.955 H 0 Z" /></g><text
           id="text272"
           style="font-variant:normal;font-weight:normal;font-size:9.96259975px;font-family:CMR10;-inkscape-font-specification:CMR10;writing-mode:lr-tb;fill:#000000;fill-opacity:1;fill-rule:nonzero;stroke:none"
           transform="matrix(1,0,0,-1,139.746,458.457)"><tspan
             id="tspan270"
             y="0"
             x="0 7.3334699 12.31477 17.849991 23.38521 28.36651">Random</tspan></text>
<g
           transform="translate(212.811,454.87)"
           id="g274"><path
             id="path276"
             style="fill:#fff200;fill-opacity:1;fill-rule:nonzero;stroke:none"
             d="M 0,0 H 38.052 V 11.955 H 0 Z" /></g><text
           id="text280"
           style="font-variant:normal;font-weight:normal;font-size:9.96259975px;font-family:CMR10;-inkscape-font-specification:CMR10;writing-mode:lr-tb;fill:#000000;fill-opacity:1;fill-rule:nonzero;stroke:none"
           transform="matrix(1,0,0,-1,222.193,458.457)"><tspan
             id="tspan278"
             y="0"
             x="0 4.9812999 9.9625998 12.73021 17.71151">32.40</tspan></text>
<g
           transform="translate(250.863,454.87)"
           id="g282"><path
             id="path284"
             style="fill:#fff200;fill-opacity:1;fill-rule:nonzero;stroke:none"
             d="M 0,0 H 38.052 V 11.955 H 0 Z" /></g><text
           id="text288"
           style="font-variant:normal;font-weight:normal;font-size:9.96259975px;font-family:CMR10;-inkscape-font-specification:CMR10;writing-mode:lr-tb;fill:#000000;fill-opacity:1;fill-rule:nonzero;stroke:none"
           transform="matrix(1,0,0,-1,260.244,458.457)"><tspan
             id="tspan286"
             y="0"
             x="0 4.9812999 9.9625998 12.73021 17.71151">32.40</tspan></text>
<g
           transform="translate(288.915,454.87)"
           id="g290"><path
             id="path292"
             style="fill:#fff200;fill-opacity:1;fill-rule:nonzero;stroke:none"
             d="M 0,0 H 53.743 V 11.955 H 0 Z" /></g><text
           id="text296"
           style="font-variant:normal;font-weight:normal;font-size:9.96259975px;font-family:CMR10;-inkscape-font-specification:CMR10;writing-mode:lr-tb;fill:#000000;fill-opacity:1;fill-rule:nonzero;stroke:none"
           transform="matrix(1,0,0,-1,304.44,458.457)"><tspan
             id="tspan294"
             y="0"
             x="0 4.9812999 9.9625998 12.73021 17.71151">32.40</tspan></text>
<g
           transform="translate(342.658,454.87)"
           id="g298"><path
             id="path300"
             style="fill:#fff200;fill-opacity:1;fill-rule:nonzero;stroke:none"
             d="M 0,0 H 39.629 V 11.955 H 0 Z" /></g><text
           id="text304"
           style="font-variant:normal;font-weight:normal;font-size:9.96259975px;font-family:CMR10;-inkscape-font-specification:CMR10;writing-mode:lr-tb;fill:#000000;fill-opacity:1;fill-rule:nonzero;stroke:none"
           transform="matrix(1,0,0,-1,348.635,458.457)"><tspan
             id="tspan302"
             y="0"
             x="0 4.9812999 9.9625998 14.9439 17.71151 22.69281">100.00</tspan></text>
<g
           transform="translate(382.287,454.87)"
           id="g306"><path
             id="path308"
             style="fill:#fff200;fill-opacity:1;fill-rule:nonzero;stroke:none"
             d="M 0,0 H 39.629 V 11.955 H 0 Z" /></g><text
           id="text312"
           style="font-variant:normal;font-weight:normal;font-size:9.96259975px;font-family:CMR10;-inkscape-font-specification:CMR10;writing-mode:lr-tb;fill:#000000;fill-opacity:1;fill-rule:nonzero;stroke:none"
           transform="matrix(1,0,0,-1,388.264,458.457)"><tspan
             id="tspan310"
             y="0"
             x="0 4.9812999 9.9625998 14.9439 17.71151 22.69281">100.00</tspan></text>
<g
           transform="translate(421.916,454.87)"
           id="g314"><path
             id="path316"
             style="fill:#fff200;fill-opacity:1;fill-rule:nonzero;stroke:none"
             d="M 0,0 H 38.052 V 11.955 H 0 Z" /></g><text
           id="text320"
           style="font-variant:normal;font-weight:normal;font-size:9.96259975px;font-family:CMR10;-inkscape-font-specification:CMR10;writing-mode:lr-tb;fill:#000000;fill-opacity:1;fill-rule:nonzero;stroke:none"
           transform="matrix(1,0,0,-1,431.297,458.457)"><tspan
             id="tspan318"
             y="0"
             x="0 4.9812999 9.9625998 12.73021 17.71151">32.40</tspan></text>
<g
           transform="translate(459.968,454.87)"
           id="g322"><path
             id="path324"
             style="fill:#fff200;fill-opacity:1;fill-rule:nonzero;stroke:none"
             d="M 0,0 H 39.629 V 11.955 H 0 Z" /></g><text
           id="text346"
           style="font-variant:normal;font-weight:normal;font-size:9.96259975px;font-family:CMR10;-inkscape-font-specification:CMR10;writing-mode:lr-tb;fill:#9e522b;fill-opacity:1;fill-rule:nonzero;stroke:none"
           transform="matrix(1,0,0,-1,465.945,458.457)"><tspan
             id="tspan326"
             y="0"
             x="0 4.9812999 9.9625998 14.9439 17.71151 22.69281">100.00</tspan><tspan
             id="tspan328"
             y="11.955"
             x="-326.19901 -318.72705 -315.95944 -311.53207 -306.2738 -298.80185 -294.37448">AlexNet</tspan><tspan
             id="tspan330"
             y="11.955"
             x="-243.75549 -238.7742 -233.79289 -231.02528 -226.04399 -205.70036 -200.71906 -195.73776 -192.97015 -187.98885 -161.50826 -156.52696 -151.54565 -148.77805 -143.79675 -112.32489 -107.34359 -102.36229 -99.594681 -94.61338 -72.695663 -67.714363 -62.733063 -59.96545 -54.98415 -34.650486 -29.669186 -24.687885 -21.920275 -16.938974 4.9787455 9.9600458 14.941345 17.708956 22.690256">90.0393.8593.4842.2355.5229.5359.65</tspan><tspan
             id="tspan332"
             y="23.91"
             x="-326.19901 -319.00601 -311.18835 -303.3707 -300.05017 -295.06888">VGG-16</tspan><tspan
             id="tspan334"
             y="23.91"
             x="-243.75151 -238.77022 -233.78891 -231.0213 -226.03999 -205.69637 -200.71507 -195.73376 -192.96616 -187.98486 -161.50427 -156.52296 -151.54167 -148.77406 -143.79276 -112.33087 -107.34957 -102.36827 -99.600662 -94.619362 -72.701637 -67.720337 -62.73904 -59.971428 -54.990128 -34.6465 -29.665199 -24.683899 -21.91629 -16.93499 4.9827304 9.9640303 14.945331 17.71294 22.694241">95.3097.9097.6658.2760.8839.9071.85</tspan><tspan
             id="tspan336"
             y="35.866001"
             x="-326.19901 -318.86554 -314.43814 -310.50891 -303.03696 -298.60956 -294.73511 -291.41458 -286.43329">ResNet-18</tspan><tspan
             id="tspan338"
             y="35.866001"
             x="-243.75351 -238.7722 -233.79091 -231.0233 -226.04199 -205.69836 -200.71707 -195.73576 -192.96815 -187.98685 -161.50626 -156.52496 -151.54367 -148.77605 -143.79475 -112.33286 -107.35156 -102.37026 -99.602654 -94.621353 -72.703629 -67.722328 -62.741032 -59.973423 -54.992123 -34.648491 -29.667192 -24.685892 -21.918282 -16.936981 4.9807382 9.962038 14.943338 17.710949 22.692247">95.1597.7697.5558.8766.8943.6871.44</tspan><tspan
             id="tspan340"
             y="47.820999"
             x="-326.19901 -318.86554 -314.43814 -310.50891 -303.03696 -298.60956 -294.73511 -291.41458 -286.43329">ResNet-50</tspan><tspan
             id="tspan342"
             y="47.820999"
             x="-243.75351 -238.7722 -233.79091 -231.0233 -226.04199 -205.69836 -200.71707 -195.73576 -192.96815 -187.98685 -161.50626 -156.52496 -151.54367 -148.77605 -143.79475 -112.33286 -107.35156 -102.37026 -99.602654 -94.621353 -72.703629 -67.722328 -62.741032 -59.973423 -54.992123 -34.648491 -29.667192 -24.685892 -21.918282 -16.936981 4.9807382 9.962038 14.943338 17.710949 22.692247">96.7898.6298.5766.6868.8447.6476.83</tspan><tspan
             id="tspan344"
             y="59.776001"
             x="-326.19901 -318.72705 -315.95944 -308.76443 -305.44391 -298.38742 -293.4061 -288.4248">ViT-B/32</tspan></text>
<text
           id="text350"
           style="font-variant:normal;font-weight:normal;font-size:9.96259975px;font-family:CMBX10;-inkscape-font-specification:CMBX10;writing-mode:lr-tb;fill:#000000;fill-opacity:1;fill-rule:nonzero;stroke:none"
           transform="matrix(1,0,0,-1,218.789,398.681)"><tspan
             id="tspan348"
             y="0"
             x="0 5.7284951 11.45699 14.639045 20.36754 38.051155 43.779648 49.508144 52.690197 58.418694 83.952835 89.681335 95.409828 98.591881 104.32037">97.1998.7598.91</tspan></text>
<text
           id="text354"
           style="font-variant:normal;font-weight:normal;font-size:9.96259975px;font-family:CMR10;-inkscape-font-specification:CMR10;writing-mode:lr-tb;fill:#000000;fill-opacity:1;fill-rule:nonzero;stroke:none"
           transform="matrix(1,0,0,-1,353.616,398.681)"><tspan
             id="tspan352"
             y="0"
             x="0 4.9812999 9.9625998 12.73021 17.71151 39.62923 44.610531 49.591831 52.35944 57.34074 77.684372 82.665672 87.646973 90.414581 95.395882 117.3136 122.2949 127.2762 130.04381 135.02512">78.0375.5855.9979.28</tspan></text>
<text
           id="text360"
           style="font-variant:normal;font-weight:normal;font-size:7.97009993px;font-family:CMBX8;-inkscape-font-specification:CMBX8;writing-mode:lr-tb;fill:#000000;fill-opacity:1;fill-rule:nonzero;stroke:none"
           transform="matrix(1,0,0,-1,139.746,386.726)"><tspan
             id="tspan356"
             y="0"
             x="0 7.0511475 12.90678 16.565056">CLIP</tspan><tspan
             id="tspan358"
             y="0"
             x="23.223278 26.477468 33.827496 36.539719 43.331043 46.585236 52.440868 57.322552 62.204239">-ViT-L/14</tspan></text>
<text
           id="text364"
           style="font-variant:normal;font-weight:normal;font-size:9.96259975px;font-family:CMR10;-inkscape-font-specification:CMR10;writing-mode:lr-tb;fill:#000000;fill-opacity:1;fill-rule:nonzero;stroke:none"
           transform="matrix(1,0,0,-1,222.193,386.726)"><tspan
             id="tspan362"
             y="0"
             x="0 4.9812999 9.9625998 12.73021 17.71151 38.055138 43.036438 48.017738 50.785351 55.766651 82.247238 87.228539 92.209839 94.977448 99.958748">96.7898.6998.80</tspan></text>
<text
           id="text368"
           style="font-variant:normal;font-weight:normal;font-size:9.96259975px;font-family:CMBX10;-inkscape-font-specification:CMBX10;writing-mode:lr-tb;fill:#000000;fill-opacity:1;fill-rule:nonzero;stroke:none"
           transform="matrix(1,0,0,-1,350.213,386.726)"><tspan
             id="tspan366"
             y="0"
             x="0 5.7284951 11.45699 14.639045 20.36754 39.625244 45.353741 51.082233 54.26429 59.992786 77.676399 83.404892 89.133392 92.315445 98.043938 117.31161 123.0401 128.7686 131.95065 137.67915">98.4599.2089.0093.13</tspan></text>
<g
           transform="translate(133.768,381.025)"
           id="g370"><path
             id="path372"
             style="fill:none;stroke:#000000;stroke-width:0.79699999;stroke-linecap:butt;stroke-linejoin:miter;stroke-miterlimit:10;stroke-dasharray:none;stroke-opacity:1"
             d="M 0,0 H 365.829" /></g><g
           transform="translate(133.768,526.623)"
           id="g374" /></g><g
         transform="translate(-133.768,-526.623)"
         id="g376"><text
           id="text380"
           style="font-variant:normal;font-weight:normal;font-size:9.96259975px;font-family:CMR10;-inkscape-font-specification:CMR10;writing-mode:lr-tb;fill:#000000;fill-opacity:1;fill-rule:nonzero;stroke:none"
           transform="matrix(1,0,0,-1,303.133,89.365)"><tspan
             id="tspan378"
             y="0"
             x="0">1</tspan></text>
</g></g></g></svg>